<svg width="128" height="132" viewBox="0 0 128 132" fill="none" xmlns="http://www.w3.org/2000/svg">
<path d="M111.731 76.6306L108.917 87.5576L125.131 91.7328L127.945 80.8058L111.731 76.6306Z" fill="white"/>
<path d="M125.131 91.7332C125.131 91.7332 125.131 91.661 125.175 91.5291L125.319 90.9452L125.868 88.7475C126.352 86.845 127.04 84.1167 127.881 80.7982L127.928 80.8767L111.712 76.72L111.81 76.6603V76.7011V76.7482L111.785 76.8393L111.737 77.0214L111.646 77.3824L111.458 78.1077C111.337 78.5891 111.214 79.0663 111.091 79.5393C110.846 80.4853 110.605 81.4167 110.369 82.3335C109.898 84.1607 109.427 85.9188 109.012 87.5827L108.959 87.4917L120.616 90.5308L123.931 91.3973L124.82 91.6359L125.049 91.6987L125.131 91.7238L125.055 91.7081L124.832 91.6547L123.953 91.4381L120.622 90.603L108.899 87.6298L108.827 87.611L108.846 87.5388C109.273 85.8748 109.722 84.1167 110.193 82.2864C110.429 81.3717 110.669 80.4403 110.912 79.4922C111.031 79.0181 111.157 78.5503 111.279 78.0606C111.342 77.8188 111.402 77.5771 111.464 77.3353L111.559 76.9743L111.606 76.7922L111.628 76.7011V76.6541V76.6321V76.6132L111.728 76.5536L127.934 80.7449L128 80.7606L127.981 80.8233C127.112 84.1544 126.396 86.8858 125.894 88.7977L125.316 90.9954C125.25 91.2403 125.197 91.4287 125.162 91.5637L125.131 91.7332Z" fill="#F66262"/>
<path d="M127.944 80.8071C127.89 80.8521 127.831 80.89 127.768 80.9201L127.244 81.2184L125.294 82.2953L118.783 85.8084L118.723 85.8398L118.679 85.7864L118.365 85.3689L113.656 79.2154C113.066 78.4368 112.585 77.7995 112.243 77.3317C112.086 77.1182 111.96 76.9455 111.863 76.8168C111.817 76.7578 111.776 76.6947 111.741 76.6284C111.795 76.6801 111.845 76.7357 111.891 76.7948C111.992 76.9235 112.127 77.0868 112.293 77.2909L113.747 79.1369L118.497 85.259L118.811 85.6765L118.707 85.6546L125.241 82.2011L127.212 81.1744L127.752 80.9013C127.813 80.8644 127.877 80.8329 127.944 80.8071Z" fill="#F66262"/>
<path d="M15.9315 102.519C16.0882 102.465 16.2279 102.371 16.3365 102.246C16.4636 102.092 16.5335 101.899 16.5343 101.7C16.5291 101.573 16.5069 101.447 16.4684 101.326C16.437 101.191 16.3993 101.047 16.3616 100.896C16.0477 99.6779 15.627 97.9261 15.0901 95.7661C14.9583 95.2261 14.817 94.6578 14.6726 94.0645L14.4528 93.1603C14.4212 93.0086 14.3781 92.8596 14.3241 92.7145C14.2551 92.5846 14.152 92.476 14.0258 92.4005C13.8958 92.3209 13.7448 92.2826 13.5926 92.2906C13.4305 92.3196 13.2702 92.3573 13.1122 92.4037L12.1138 92.6611L10.0261 93.2042L0.733061 95.606C0.547109 95.6583 0.387254 95.7779 0.284557 95.9415C0.18186 96.1051 0.143655 96.3011 0.177365 96.4913C0.27469 96.8963 0.368876 97.3013 0.466202 97.7032C0.660852 98.509 0.85341 99.3022 1.04387 100.083C1.42062 101.653 1.78166 103.15 2.13015 104.585L2.25887 105.119C2.28975 105.284 2.37091 105.435 2.4912 105.552C2.60736 105.667 2.7588 105.74 2.92131 105.759C3.0889 105.766 3.25618 105.74 3.41422 105.684L5.38584 105.182L8.92095 104.271L14.0478 102.978L15.4417 102.635L15.8059 102.551L15.9315 102.525L15.8091 102.566L15.4512 102.667L14.0635 103.04L8.95234 104.384L5.42037 105.304L3.45189 105.809C3.27705 105.873 3.09132 105.9 2.90561 105.891C2.71064 105.869 2.52848 105.783 2.38759 105.646C2.24645 105.51 2.15011 105.333 2.11131 105.141C2.0705 104.965 2.02655 104.786 1.98259 104.607C1.63411 103.172 1.26678 101.668 0.886898 100.108C0.698527 99.3294 0.503876 98.5383 0.309225 97.7283C0.2119 97.3233 0.114574 96.9152 0.0141092 96.5039C-0.0262967 96.273 0.0207986 96.0354 0.146196 95.8375C0.271594 95.6395 0.466287 95.4954 0.692247 95.4333L9.98839 93.0441L12.0762 92.5104L13.0777 92.253C13.2432 92.2039 13.4122 92.1672 13.5831 92.1431C13.763 92.1313 13.942 92.1763 14.0949 92.2718C14.2442 92.3639 14.364 92.4968 14.4402 92.6548C14.4999 92.8072 14.5451 92.9649 14.5752 93.1257C14.6506 93.4397 14.7228 93.738 14.7919 94.0331C14.9331 94.6264 15.0713 95.1947 15.2 95.7378C15.7149 97.901 16.1419 99.656 16.4213 100.88L16.5217 101.31C16.5592 101.436 16.5793 101.566 16.5814 101.697C16.5747 101.906 16.496 102.107 16.3585 102.265C16.2724 102.361 16.1648 102.435 16.0445 102.482C16.0087 102.499 15.9707 102.512 15.9315 102.519Z" fill="#F66262"/>
<path d="M8.63548 98.0093L10.6291 98.6089L9.13466 100.097L7.64025 101.582L7.14107 99.4943L6.64502 97.4065L8.63548 98.0093Z" fill="#F66262"/>
<path d="M34.3542 5.11516C34.8278 4.90978 35.2309 4.57022 35.5138 4.1384C35.7966 3.70657 35.9469 3.20138 35.946 2.68516C35.9741 2.346 35.9321 2.00467 35.8226 1.68243C35.7132 1.36019 35.5385 1.06392 35.3096 0.812073C35.0807 0.560221 34.8025 0.358171 34.4921 0.218499C34.1818 0.0788259 33.846 0.00451827 33.5057 0.000199708C33.1654 -0.00411885 32.8278 0.061644 32.514 0.193396C32.2002 0.325148 31.9169 0.52007 31.6817 0.766032C31.4465 1.01199 31.2644 1.30373 31.1468 1.62309C31.0292 1.94246 30.9786 2.2826 30.9981 2.62237C30.9834 3.14261 31.1232 3.65552 31.3998 4.09638C31.6764 4.53724 32.0774 4.88628 32.5521 5.09946C28.7407 5.63946 28.882 9.77108 28.882 9.77108L37.8893 9.89038C37.8893 9.89038 38.1248 5.71481 34.3542 5.11516Z" fill="#F66262"/>
<path d="M84.1689 22.4269V42.3943C84.1689 43.0376 84.6904 43.5591 85.3337 43.5591H114.999C115.642 43.5591 116.164 43.0376 116.164 42.3943V22.4269C116.164 21.7836 115.642 21.2622 114.999 21.2622L85.3337 21.2622C84.6904 21.2622 84.1689 21.7836 84.1689 22.4269Z" fill="#717171"/>
<path d="M86.3569 21.9644V42.8549H113.077V21.9644H86.3569Z" fill="white"/>
<path d="M115.342 32.7246C115.521 32.2883 115.313 31.7894 114.876 31.6102C114.44 31.431 113.941 31.6394 113.762 32.0757C113.583 32.5119 113.791 33.0109 114.227 33.1901C114.664 33.3692 115.163 33.1608 115.342 32.7246Z" fill="#353535"/>
<path d="M85.4466 29.2346V35.5953C85.4458 35.6422 85.4265 35.6869 85.3931 35.7198C85.3596 35.7527 85.3146 35.7711 85.2676 35.7711C85.221 35.7711 85.1763 35.7526 85.1433 35.7196C85.1103 35.6866 85.0918 35.6419 85.0918 35.5953V29.2346C85.0914 29.2113 85.0956 29.1881 85.1043 29.1664C85.1129 29.1447 85.1258 29.1249 85.1422 29.1083C85.1586 29.0916 85.1781 29.0784 85.1996 29.0693C85.2212 29.0603 85.2443 29.0557 85.2676 29.0557C85.3151 29.0557 85.3606 29.0745 85.3942 29.1081C85.4277 29.1416 85.4466 29.1872 85.4466 29.2346Z" fill="#353535"/>
<path d="M113.495 11.1841H97.1133V33.6034H113.495V11.1841Z" fill="#F66262"/>
<path d="M109.342 14.0084H92.9595V36.4278H109.342V14.0084Z" fill="#F66262"/>
<path d="M106.535 17.4523H90.1528V39.8716H106.535V17.4523Z" fill="white"/>
<path d="M106.544 39.8638C106.544 39.8638 106.544 39.8262 106.544 39.754C106.544 39.6817 106.544 39.5719 106.544 39.44V38.2124C106.544 37.1419 106.544 35.5815 106.522 33.6099C106.522 29.6635 106.494 24.0689 106.472 17.4476L106.548 17.523L90.1655 17.5418L90.2471 17.4602V39.8795L90.1812 39.8105L102.077 39.8387H105.389H106.259C106.46 39.8387 106.573 39.8387 106.573 39.8387H106.284H105.424L102.127 39.8576L90.1969 39.9015H90.1027V39.8356C90.1027 33.5565 90.0807 25.7893 90.0713 17.4162V17.3346H90.1529H106.535H106.61V17.4099C106.61 24.05 106.591 29.6541 106.585 33.6193C106.585 35.5847 106.585 37.1387 106.566 38.2062C106.566 38.7336 106.566 39.148 106.566 39.418C106.566 39.5499 106.566 39.6535 106.566 39.732C106.564 39.7766 106.556 39.8208 106.544 39.8638Z" fill="#353535"/>
<path d="M100.168 21.9569C100.168 22.0009 98.3846 22.0385 96.187 22.0417C93.9893 22.0448 92.2061 22.0071 92.2061 21.9632C92.2061 21.9192 93.9893 21.8784 96.187 21.8784C98.3846 21.8784 100.168 21.9098 100.168 21.9569Z" fill="#353535"/>
<path d="M104.476 23.9012C104.476 23.9482 101.729 23.9859 98.341 23.9891C94.9534 23.9922 92.2095 23.9545 92.2095 23.9106C92.2095 23.8666 94.9534 23.8258 98.341 23.8258C101.729 23.8258 104.476 23.8572 104.476 23.9012Z" fill="#353535"/>
<path d="M104.476 25.9335C104.476 25.9775 101.732 26.0152 98.3441 26.0183C94.9566 26.0215 92.2095 25.9869 92.2095 25.9398C92.2095 25.8927 94.9566 25.8582 98.3441 25.8551C101.732 25.8519 104.476 25.8865 104.476 25.9335Z" fill="#353535"/>
<path d="M104.479 27.9819C104.479 28.0258 101.731 28.0666 98.3439 28.0666C94.9563 28.0666 92.2124 28.0352 92.2124 27.9913C92.2124 27.9473 94.9563 27.9065 98.3439 27.9034C101.731 27.9002 104.479 27.9222 104.479 27.9819Z" fill="#353535"/>
<path d="M104.479 29.9952C104.479 30.0422 101.735 30.0799 98.347 30.0831C94.9595 30.0862 92.2124 30.0485 92.2124 30.0046C92.2124 29.9606 94.9595 29.9198 98.347 29.9198C101.735 29.9198 104.479 29.9512 104.479 29.9952Z" fill="#353535"/>
<path d="M104.481 32.0314C104.481 32.0754 101.734 32.1131 98.3468 32.1162C94.9593 32.1194 92.2153 32.0848 92.2153 32.0377C92.2153 31.9906 94.9593 31.9561 98.3468 31.953C101.734 31.9498 104.481 31.9844 104.481 32.0314Z" fill="#353535"/>
<path d="M104.481 34.061C104.481 34.1049 101.738 34.1457 98.35 34.1457C94.9624 34.1457 92.2153 34.1143 92.2153 34.0704C92.2153 34.0264 94.9624 33.9856 98.35 33.9825C101.738 33.9793 104.481 34.017 104.481 34.061Z" fill="#353535"/>
<path d="M98.8115 36.1009C98.8115 36.1448 97.3359 36.1825 95.515 36.1825C93.694 36.1825 92.2153 36.148 92.2153 36.104C92.2153 36.06 93.694 36.0224 95.515 36.0192C96.6145 35.9909 97.7147 36.0182 98.8115 36.1009Z" fill="#353535"/>
<path d="M87.0948 97.7063H41.5748C40.3594 97.7063 39.374 98.6916 39.374 99.9071V128.518C39.374 129.733 40.3594 130.718 41.5748 130.718H87.0948C88.3103 130.718 89.2956 129.733 89.2956 128.518V99.9071C89.2956 98.6916 88.3103 97.7063 87.0948 97.7063Z" fill="#353535"/>
<path d="M88.4859 131.165H40.1843C39.8048 131.166 39.4291 131.091 39.0784 130.946C38.7278 130.801 38.4093 130.588 38.141 130.32C37.8727 130.052 37.6599 129.733 37.5149 129.383C37.3699 129.032 37.2955 128.656 37.2959 128.277H91.3742C91.3742 129.043 91.0699 129.777 90.5282 130.319C89.9866 130.861 89.2519 131.165 88.4859 131.165Z" fill="#353535"/>
<path d="M87.8172 99.0154H40.7148V126.894H87.8172V99.0154Z" fill="#717171"/>
<path d="M59.4136 128.277L60.0854 129.344H69.5323L70.1539 128.277H59.4136Z" fill="#717171"/>
<path d="M85.6539 100.872H42.2876V126.883H85.6539V100.872Z" fill="white"/>
<path d="M64.3273 104.201L64.7417 111.805C64.7481 111.936 64.8046 112.059 64.8993 112.149C64.9939 112.239 65.1197 112.289 65.2503 112.289L78.9072 112.389C78.9761 112.391 79.0447 112.378 79.1087 112.353C79.1727 112.327 79.2309 112.289 79.2796 112.24C79.3283 112.191 79.3667 112.133 79.3922 112.069C79.4178 112.005 79.4301 111.937 79.4284 111.868L79.4724 105.959C79.4728 105.892 79.4598 105.825 79.4343 105.762C79.4088 105.7 79.3711 105.643 79.3236 105.595C79.276 105.548 79.2195 105.51 79.1572 105.484C79.0949 105.458 79.0281 105.444 78.9606 105.444H70.5624C70.4263 105.442 70.2961 105.388 70.1982 105.294L68.754 103.837C68.6575 103.743 68.5279 103.69 68.393 103.689L64.8516 103.661C64.781 103.66 64.7109 103.673 64.6456 103.7C64.5804 103.727 64.5213 103.767 64.4721 103.817C64.423 103.868 64.3847 103.928 64.3598 103.994C64.3349 104.06 64.3238 104.131 64.3273 104.201Z" fill="#EDEDED"/>
<path d="M79.4786 104.551L64.5537 104.442L64.4883 113.361L79.4132 113.471L79.4786 104.551Z" fill="#F9F9F9"/>
<path d="M63.3602 105.234L64.4308 114.543C64.4371 114.622 64.473 114.695 64.5312 114.749C64.5894 114.802 64.6656 114.832 64.7447 114.832L79.287 114.939C79.3298 114.941 79.3727 114.935 79.413 114.92C79.4532 114.906 79.4901 114.883 79.5213 114.853C79.5525 114.824 79.5773 114.789 79.5942 114.749C79.6112 114.71 79.6199 114.667 79.6198 114.625L80.4204 105.332C80.4238 105.287 80.4183 105.243 80.4043 105.201C80.3903 105.159 80.368 105.12 80.3388 105.087C80.3095 105.053 80.2739 105.026 80.234 105.007C80.1941 104.987 80.1507 104.976 80.1064 104.974L63.6899 104.854C63.6412 104.851 63.5923 104.859 63.5472 104.877C63.502 104.896 63.4619 104.925 63.4299 104.962C63.3978 104.999 63.3749 105.042 63.3628 105.09C63.3507 105.137 63.3498 105.187 63.3602 105.234Z" fill="#EDEDED"/>
<path d="M53.788 108.279L54.3593 118.756C54.3689 118.935 54.4467 119.105 54.5768 119.229C54.7069 119.353 54.8795 119.423 55.0595 119.424L73.9123 119.563C74.0051 119.563 74.0971 119.546 74.1831 119.511C74.2691 119.476 74.3475 119.425 74.4137 119.36C74.4798 119.295 74.5326 119.218 74.5688 119.132C74.6051 119.047 74.6242 118.955 74.625 118.862L74.6846 110.7C74.6855 110.606 74.6678 110.514 74.6327 110.427C74.5976 110.341 74.5456 110.262 74.48 110.196C74.4143 110.13 74.3361 110.077 74.25 110.041C74.1639 110.005 74.0715 109.987 73.9782 109.987H62.384C62.1967 109.987 62.0171 109.912 61.8848 109.78L59.8818 107.78C59.8175 107.714 59.7408 107.662 59.6562 107.627C59.5715 107.591 59.4807 107.573 59.3889 107.573L54.5006 107.535C54.4042 107.535 54.3087 107.554 54.2199 107.591C54.1311 107.629 54.0509 107.684 53.9842 107.754C53.9175 107.823 53.8657 107.906 53.832 107.996C53.7982 108.087 53.7833 108.183 53.788 108.279Z" fill="#F66262"/>
<path d="M74.7011 108.76L54.1001 108.609L54.0099 120.919L74.6109 121.07L74.7011 108.76Z" fill="#F9F9F9"/>
<path d="M52.4535 109.703L53.9322 122.553C53.9445 122.664 53.9971 122.766 54.08 122.84C54.1628 122.914 54.27 122.955 54.3811 122.955L74.4553 123.102C74.5701 123.103 74.6809 123.06 74.7658 122.983C74.8507 122.906 74.9034 122.799 74.9136 122.685L76.0188 109.857C76.024 109.794 76.0161 109.731 75.9958 109.672C75.9755 109.612 75.943 109.558 75.9006 109.511C75.8581 109.465 75.8065 109.428 75.7491 109.403C75.6916 109.377 75.6295 109.364 75.5667 109.364L52.9087 109.198C52.8444 109.197 52.7808 109.21 52.7221 109.236C52.6633 109.262 52.6106 109.3 52.5676 109.348C52.5246 109.396 52.4922 109.452 52.4726 109.513C52.4529 109.574 52.4464 109.639 52.4535 109.703Z" fill="#F66262"/>
<path d="M67.8751 113.899C67.8751 113.899 67.9473 113.934 68.0572 114.031C68.2206 114.174 68.3652 114.338 68.4873 114.518C68.9454 115.189 69.1501 116.001 69.0649 116.81C68.9947 117.406 68.8014 117.982 68.4971 118.5C68.1929 119.019 67.7843 119.468 67.2974 119.82C66.7227 120.249 66.0465 120.52 65.3352 120.608C64.5646 120.688 63.7879 120.534 63.1061 120.166C62.4217 119.807 61.8582 119.254 61.4861 118.577C61.1516 117.94 61.0026 117.222 61.056 116.505C61.0961 115.86 61.2876 115.235 61.6148 114.678C61.899 114.196 62.277 113.777 62.7262 113.444C63.3707 112.96 64.1263 112.644 64.9239 112.527C65.1368 112.494 65.3521 112.478 65.5675 112.48C65.7151 112.48 65.7904 112.48 65.7904 112.505C65.7904 112.53 65.4765 112.537 64.9459 112.653C64.1917 112.814 63.4848 113.147 62.8801 113.626C62.4669 113.952 62.1214 114.355 61.8629 114.813C61.5692 115.337 61.3995 115.921 61.3668 116.521C61.3437 117.036 61.431 117.55 61.623 118.028C61.8149 118.507 62.1069 118.938 62.4796 119.295C62.8522 119.651 63.2967 119.923 63.7833 120.094C64.2698 120.264 64.7872 120.328 65.3007 120.282C65.9581 120.206 66.5845 119.96 67.1184 119.569C67.5795 119.245 67.9695 118.829 68.2648 118.349C68.5601 117.869 68.7543 117.333 68.8358 116.775C68.9346 116.012 68.7743 115.238 68.3805 114.577C68.0948 114.119 67.8531 113.921 67.8751 113.899Z" fill="#353535"/>
<path d="M64.1327 111.309C64.1986 111.19 64.9584 111.721 65.8217 112.452L65.9662 112.571L65.8249 112.697L65.7181 112.791C64.8108 113.579 64.0291 114.163 63.9694 114.097C63.9098 114.031 64.5973 113.334 65.5015 112.543L65.6083 112.452V112.7C65.1781 112.33 64.8014 111.987 64.5345 111.736C64.3844 111.61 64.2495 111.467 64.1327 111.309Z" fill="#353535"/>
<path d="M15.8782 66.5285L3.36087 65.0749C3.00265 65.0351 2.65579 64.925 2.34016 64.751C2.02454 64.5769 1.74634 64.3423 1.5215 64.0606C1.29666 63.7789 1.12959 63.4556 1.02986 63.1093C0.93013 62.7629 0.899695 62.4003 0.940298 62.0421L4.56645 30.7473C4.60774 30.3894 4.71925 30.0432 4.89461 29.7285C5.06996 29.4138 5.30571 29.1368 5.58834 28.9134C5.87096 28.6899 6.1949 28.5245 6.54159 28.4265C6.88828 28.3286 7.25089 28.3 7.60865 28.3424L20.1259 29.796C20.848 29.8795 21.5074 30.2461 21.9594 30.8153C22.4115 31.3845 22.6192 32.1098 22.5371 32.832L18.9109 64.1268C18.8267 64.8472 18.46 65.5047 17.8914 65.955C17.3228 66.4054 16.5987 66.6116 15.8782 66.5285Z" fill="#353535"/>
<path d="M19.997 30.8744L17.5701 30.5918C17.4909 30.584 17.4109 30.592 17.3348 30.6153C17.2587 30.6386 17.1879 30.6768 17.1266 30.7275C17.0653 30.7783 17.0147 30.8408 16.9777 30.9112C16.9406 30.9817 16.9179 31.0588 16.9108 31.1381L16.8574 31.5776C16.8504 31.6569 16.8276 31.734 16.7906 31.8045C16.7536 31.8749 16.7029 31.9374 16.6416 31.9881C16.5803 32.0389 16.5096 32.0771 16.4335 32.1004C16.3574 32.1237 16.2774 32.1317 16.1981 32.1239L11.4669 31.5745C11.3098 31.5475 11.1689 31.4617 11.0727 31.3346C10.9765 31.2075 10.9322 31.0486 10.9489 30.8901L10.9991 30.4505C11.0101 30.3717 11.0055 30.2915 10.9854 30.2146C10.9653 30.1376 10.9301 30.0653 10.882 30.002C10.8338 29.9387 10.7736 29.8855 10.7048 29.8455C10.636 29.8056 10.5599 29.7797 10.4811 29.7692L9.63026 29.6688L7.5048 29.4239C7.25341 29.3946 6.99872 29.4153 6.75534 29.4848C6.51197 29.5542 6.28472 29.6711 6.08664 29.8286C5.88855 29.9861 5.72354 30.1812 5.60109 30.4027C5.47863 30.6242 5.40114 30.8677 5.37306 31.1192L1.83482 61.6511C1.77918 62.1559 1.92562 62.6621 2.24212 63.0592C2.55862 63.4563 3.01945 63.712 3.52388 63.7703L16.0098 65.2271C16.5156 65.2863 17.0242 65.1424 17.4239 64.8269C17.8236 64.5113 18.0817 64.05 18.1415 63.5443L21.686 33.003C21.7149 32.7523 21.6941 32.4984 21.6249 32.2557C21.5556 32.0131 21.4392 31.7865 21.2824 31.5888C21.1255 31.3912 20.9313 31.2263 20.7107 31.1038C20.4902 30.9812 20.2476 30.9032 19.997 30.8744Z" fill="#FDF1F1"/>
<path d="M12.0979 34.1243L1.75 34.634L2.09352 41.6079L12.4414 41.0982L12.0979 34.1243Z" fill="#F9F9F9"/>
<path d="M12.098 34.1217C11.9881 34.2558 11.8684 34.3818 11.7401 34.4984L10.7198 35.4748C9.85325 36.2943 8.65081 37.4182 7.3071 38.6583L7.26 38.7054L7.21919 38.6552L7.1407 38.6018C5.64315 37.5218 4.29315 36.536 3.3199 35.8171L2.17083 34.9568C2.02623 34.8568 1.88975 34.7455 1.7627 34.624C1.91881 34.7046 2.06793 34.7981 2.20851 34.9034L3.38583 35.7229C4.37792 36.4167 5.73733 37.3868 7.23803 38.47L7.31338 38.5233H7.20977C8.55035 37.2832 9.76849 36.1718 10.6632 35.3838L11.7181 34.4419C11.8364 34.3257 11.9634 34.2186 12.098 34.1217Z" fill="#F66262"/>
<path d="M8.87061 36.9681C9.52534 37.5984 10.1418 38.2673 10.7166 38.9712C11.3338 39.6418 11.9094 40.3495 12.4402 41.0903C11.7861 40.4561 11.1697 39.7842 10.5942 39.0779C9.97823 38.4095 9.40268 37.705 8.87061 36.9681Z" fill="#F66262"/>
<path d="M86.2189 84.3551C89.0444 84.3865 89.9141 80.4841 87.3177 79.3633L87.2549 79.3381C86.1972 78.905 85.0513 78.7309 83.9127 78.8303C82.7741 78.9297 81.6757 79.2997 80.709 79.9095C80.4108 78.6468 79.8187 77.4723 78.9808 76.4816C78.143 75.491 77.083 74.7121 75.8873 74.2085C74.6916 73.7049 73.3938 73.4907 72.0996 73.5834C70.8055 73.676 69.5515 74.073 68.4397 74.7419C67.928 69.4235 65.2311 64.2778 60.9049 61.1289C56.5786 57.9799 50.6826 56.9973 45.7001 58.9312C40.7177 60.8652 36.9095 65.7565 36.6614 71.0906C35.2601 70.9467 33.8441 71.0863 32.4978 71.5011C31.1516 71.9158 29.9026 72.5973 28.8252 73.5049C28.7561 73.5614 28.6902 73.6211 28.6211 73.687C24.8066 77.2786 27.4469 83.7335 32.7025 83.7774L86.2189 84.3551Z" fill="#EDEDED"/>
<path d="M49.2665 70.4835C49.1295 70.4944 48.9916 70.4828 48.8584 70.449C49.1289 70.4071 49.4042 70.4071 49.6747 70.449C49.5414 70.4828 49.4036 70.4944 49.2665 70.4835Z" fill="#F66262"/>
<path d="M90.2782 82.5023L90.3316 80.0127L85.6725 79.8777L85.5532 83.5195L85.8389 83.5447C87.123 83.6545 92.3754 84.0062 93.2451 83.7707C94.212 83.507 90.2782 82.5023 90.2782 82.5023Z" fill="#F66262"/>
<g opacity="0.4">
<path d="M92.1966 83.0593C92.1966 83.0593 93.5749 83.4989 93.3928 83.7218C93.2107 83.9447 87.8923 83.7908 85.5439 83.5177V83.4141L91.7476 83.6464C91.7476 83.6464 91.9266 83.0625 92.1966 83.0593Z" fill="white"/>
</g>
<path d="M85.4907 83.4077H85.5692L85.7984 83.4266L86.6461 83.4893C87.3587 83.5333 88.3477 83.5867 89.4403 83.6181C90.5328 83.6495 91.5218 83.6589 92.2407 83.6557C91.5249 83.6557 90.5359 83.6369 89.4434 83.6024C88.3508 83.5678 87.3619 83.527 86.6461 83.4893L85.8015 83.4454H85.5692L85.4907 83.4077Z" fill="#353535"/>
<path d="M91.7635 83.7204C91.807 83.5818 91.8648 83.4481 91.9362 83.3216C92.0273 83.2043 92.1328 83.0988 92.2501 83.0077C92.1031 83.0542 91.9795 83.1554 91.9048 83.2903C91.8059 83.4111 91.7555 83.5644 91.7635 83.7204Z" fill="#353535"/>
<path d="M90.4166 82.9818C90.4166 82.9818 90.4982 82.9128 90.5673 82.8092C90.6363 82.7056 90.6866 82.6114 90.674 82.602C90.6615 82.5925 90.5924 82.671 90.5202 82.7778C90.448 82.8845 90.3977 82.9756 90.4166 82.9818Z" fill="#353535"/>
<path d="M90.0398 82.7706C90.0398 82.7706 90.1246 82.7361 90.2062 82.667C90.2879 82.598 90.3475 82.532 90.3381 82.5195C90.3287 82.5069 90.2533 82.554 90.1686 82.6231C90.0838 82.6922 90.0273 82.7612 90.0398 82.7706Z" fill="#353535"/>
<path d="M89.814 82.3239C89.8907 82.3545 89.9733 82.3673 90.0557 82.3616C90.1377 82.3746 90.2216 82.3682 90.3006 82.3427C90.2236 82.313 90.1412 82.3002 90.0588 82.305C89.9769 82.292 89.893 82.2984 89.814 82.3239Z" fill="#353535"/>
<path d="M89.7383 82.0131C89.817 82.0696 89.9114 82.1003 90.0083 82.101C90.1033 82.1181 90.2011 82.1083 90.2908 82.0727C90.1999 82.0545 90.1073 82.045 90.0146 82.0445C89.9237 82.0252 89.8312 82.0147 89.7383 82.0131Z" fill="#353535"/>
<path d="M90.5796 82.5794C90.6833 82.5991 90.7898 82.5991 90.8935 82.5794C90.9998 82.5678 91.1049 82.5468 91.2075 82.5166C91.2716 82.5004 91.3337 82.4773 91.3927 82.4476C91.4279 82.4272 91.4547 82.3949 91.4681 82.3565C91.473 82.3343 91.4718 82.3112 91.4646 82.2897C91.4574 82.2681 91.4445 82.2489 91.4273 82.2341C91.3145 82.1746 91.1846 82.1561 91.0597 82.1819C90.9348 82.2077 90.8228 82.2761 90.7429 82.3754C90.6938 82.4326 90.6584 82.5003 90.6392 82.5732C90.633 82.6 90.633 82.6279 90.6392 82.6548C90.6698 82.5628 90.7178 82.4775 90.7805 82.4036C90.8511 82.3274 90.9412 82.2721 91.0411 82.2435C91.1603 82.2076 91.2889 82.22 91.399 82.278C91.4461 82.3157 91.4241 82.3691 91.3708 82.4005C91.317 82.4289 91.2601 82.451 91.2012 82.4664C91.0989 82.4998 90.9939 82.524 90.8873 82.5386C90.6926 82.5732 90.5796 82.57 90.5796 82.5794Z" fill="#353535"/>
<path d="M90.6583 82.6077C90.6955 82.5454 90.7099 82.4722 90.6992 82.4005C90.6908 82.3215 90.6651 82.2454 90.6238 82.1776C90.5991 82.133 90.5638 82.0951 90.5212 82.0672C90.4785 82.0394 90.4297 82.0223 90.3789 82.0175C90.3481 82.0236 90.3207 82.0413 90.3026 82.067C90.2845 82.0928 90.277 82.1245 90.2816 82.1556C90.2867 82.2036 90.3028 82.2498 90.3287 82.2906C90.3657 82.3578 90.4111 82.42 90.4637 82.4758C90.5085 82.5315 90.5669 82.5748 90.6332 82.6014C90.6332 82.6014 90.5736 82.5449 90.4951 82.4476C90.4475 82.3917 90.4064 82.3306 90.3726 82.2655C90.335 82.1996 90.3099 82.0865 90.3726 82.074C90.4354 82.0614 90.5234 82.1462 90.5673 82.209C90.607 82.2676 90.6337 82.3339 90.6458 82.4036C90.6539 82.4713 90.6581 82.5395 90.6583 82.6077Z" fill="#353535"/>
<path d="M85.6226 82.1353C85.6226 82.1353 85.7544 82.1353 85.9648 82.1573C86.239 82.194 86.4971 82.3083 86.7085 82.4869C86.9199 82.6655 87.0758 82.9008 87.1578 83.1651C87.1896 83.2757 87.2158 83.3878 87.2363 83.501C87.2416 83.4698 87.2416 83.438 87.2363 83.4068C87.2301 83.3208 87.2154 83.2356 87.1923 83.1525C87.1161 82.877 86.9585 82.6308 86.7402 82.4461C86.5211 82.2622 86.2523 82.1474 85.9679 82.1165C85.8823 82.1085 85.7961 82.1085 85.7105 82.1165C85.6803 82.1174 85.6505 82.1238 85.6226 82.1353Z" fill="#353535"/>
<path d="M86.1626 80.2089C86.1206 80.5264 86.0975 80.8462 86.0935 81.1664C86.0756 81.4801 86.0756 81.7946 86.0935 82.1083C86.1353 81.796 86.1584 81.4815 86.1626 81.1664C86.181 80.8475 86.181 80.5278 86.1626 80.2089Z" fill="#353535"/>
<path d="M87.8423 83.0913C88.0633 83.1514 88.2914 83.181 88.5204 83.1792C88.7491 83.1982 88.9793 83.1865 89.2048 83.1447C89.2048 83.1447 88.8909 83.1447 88.5236 83.1227C88.1562 83.1007 87.8454 83.0756 87.8423 83.0913Z" fill="#353535"/>
<path d="M86.9287 83.063C86.9287 83.063 86.9538 83.129 86.9821 83.2012C87.0103 83.2734 87.026 83.333 87.0417 83.333C87.0574 83.333 87.0668 83.2608 87.0417 83.1792C87.0166 83.0976 86.9413 83.0536 86.9287 83.063Z" fill="#353535"/>
<path d="M86.5991 82.627C86.5991 82.627 86.6148 82.6867 86.6619 82.7369C86.709 82.7871 86.7561 82.8185 86.7687 82.8091C86.7812 82.7997 86.7498 82.7495 86.7027 82.6961C86.6556 82.6427 86.6085 82.6082 86.5991 82.627Z" fill="#353535"/>
<path d="M86.1122 82.416C86.1122 82.4317 86.175 82.4317 86.2441 82.4568C86.3131 82.4819 86.3602 82.5227 86.3728 82.5133C86.3853 82.5039 86.3477 82.4348 86.2629 82.4066C86.1781 82.3783 86.1059 82.4003 86.1122 82.416Z" fill="#353535"/>
<path d="M85.7637 82.3114C85.7637 82.3271 85.7825 82.3491 85.8202 82.3679C85.8579 82.3868 85.8955 82.3836 85.9018 82.3679C85.9081 82.3523 85.8798 82.3271 85.8422 82.3114C85.8045 82.2957 85.77 82.2926 85.7637 82.3114Z" fill="#353535"/>
<path opacity="0.3" d="M85.6318 82.0115L90.2908 82.0711L90.3002 81.5092L85.6035 81.7164L85.6318 82.0115Z" fill="#353535"/>
<path d="M85.3431 82.451L85.3997 79.9645L80.7375 79.8295L80.6182 83.4682L80.907 83.4964C82.1911 83.6032 87.4435 83.9548 88.31 83.7193C89.277 83.4556 85.3431 82.451 85.3431 82.451Z" fill="#F66262"/>
<g opacity="0.4">
<path d="M87.2767 83.014C87.2767 83.014 88.6518 83.4536 88.4728 83.6765C88.2939 83.8994 82.9724 83.7455 80.624 83.4693V83.3657L86.8309 83.6011C86.8309 83.6011 86.991 83.0172 87.2767 83.014Z" fill="white"/>
</g>
<path d="M80.5552 83.3605H80.6368L80.866 83.3825L81.7105 83.4421C82.4263 83.4892 83.4153 83.5394 84.5078 83.574C85.6004 83.6085 86.5893 83.6148 87.3052 83.6116H88.1528H88.3852C88.4111 83.6166 88.4377 83.6166 88.4636 83.6116H88.3852H88.1528H87.3052C86.5893 83.6116 85.6004 83.5897 84.5078 83.5583C83.4153 83.5269 82.4295 83.4798 81.7137 83.4452L80.866 83.4013H80.6368L80.5552 83.3605Z" fill="#353535"/>
<path d="M86.8312 83.672C86.8727 83.5332 86.9296 83.3995 87.0008 83.2733C87.0887 83.1583 87.1887 83.0531 87.299 82.9594C87.1534 83.0101 87.0308 83.1115 86.9537 83.245C86.8622 83.3677 86.8187 83.5195 86.8312 83.672Z" fill="#353535"/>
<path d="M85.4752 82.9223C85.4909 82.9223 85.5568 82.8532 85.629 82.7465C85.7012 82.6397 85.7483 82.5518 85.7357 82.5424C85.7232 82.533 85.6541 82.6115 85.5819 82.7151C85.5097 82.8187 85.4626 82.9223 85.4752 82.9223Z" fill="#353535"/>
<path d="M85.1045 82.7255C85.1045 82.7255 85.1893 82.6909 85.2709 82.6219C85.3525 82.5528 85.4122 82.4837 85.4028 82.4712C85.3933 82.4586 85.318 82.5088 85.2364 82.5779C85.1547 82.647 85.0951 82.7129 85.1045 82.7255Z" fill="#353535"/>
<path d="M84.8784 82.2943C84.9554 82.324 85.0378 82.3369 85.1202 82.332C85.2022 82.3432 85.2857 82.3367 85.3651 82.3132C85.2888 82.2808 85.2058 82.2678 85.1233 82.2755C85.0413 82.2624 84.9574 82.2689 84.8784 82.2943Z" fill="#353535"/>
<path d="M84.8062 81.9801C84.8852 82.0359 84.9793 82.0666 85.0761 82.068C85.1703 82.0871 85.268 82.0761 85.3556 82.0366C85.2654 82.0203 85.174 82.0119 85.0824 82.0115C84.9915 81.9923 84.899 81.9818 84.8062 81.9801Z" fill="#353535"/>
<path d="M85.6475 82.5326C85.746 82.5513 85.8472 82.5513 85.9457 82.5326C86.0522 82.5238 86.1574 82.5038 86.2597 82.473C86.3242 82.4566 86.3864 82.4324 86.4449 82.4007C86.4809 82.382 86.5088 82.3507 86.5234 82.3128C86.5287 82.2904 86.5274 82.2668 86.5196 82.2451C86.5118 82.2234 86.4978 82.2044 86.4794 82.1904C86.3665 82.1315 86.2368 82.1134 86.1121 82.1391C85.9873 82.1648 85.8753 82.2329 85.795 82.3317C85.7479 82.3902 85.7127 82.4574 85.6914 82.5295C85.6852 82.5553 85.6852 82.5822 85.6914 82.608C85.7272 82.5177 85.7759 82.4331 85.8358 82.3568C85.9053 82.2799 85.9959 82.2252 86.0964 82.1998C86.1553 82.1813 86.2174 82.1749 86.2789 82.1808C86.3404 82.1867 86.4 82.2049 86.4543 82.2343C86.4983 82.2689 86.4794 82.3254 86.4261 82.3568C86.3706 82.3839 86.3128 82.406 86.2534 82.4227C86.1503 82.4532 86.0455 82.4773 85.9394 82.4949C85.7605 82.5263 85.6475 82.5232 85.6475 82.5326Z" fill="#353535"/>
<path d="M85.7228 82.548C85.7228 82.548 85.773 82.479 85.7636 82.344C85.7562 82.2648 85.7304 82.1884 85.6882 82.1211C85.6635 82.0765 85.6282 82.0386 85.5856 82.0107C85.5429 81.9828 85.4941 81.9657 85.4433 81.9609C85.4127 81.9663 85.3854 81.9834 85.3673 82.0087C85.3491 82.0339 85.3415 82.0652 85.346 82.0959C85.353 82.1435 85.369 82.1893 85.3931 82.2309C85.4304 82.2988 85.4768 82.3611 85.5312 82.4162C85.5759 82.4715 85.6329 82.5156 85.6976 82.5449C85.6976 82.5449 85.6411 82.4884 85.5595 82.3911C85.514 82.3343 85.4741 82.2733 85.4402 82.209C85.4025 82.143 85.3774 82.03 85.4402 82.0174C85.503 82.0049 85.5878 82.0897 85.6317 82.1493C85.6723 82.2089 85.7001 82.2762 85.7133 82.3471C85.7236 82.4136 85.7268 82.4809 85.7228 82.548Z" fill="#353535"/>
<path d="M80.6841 82.0876C80.6841 82.0876 80.8191 82.0876 81.0294 82.1096C81.3033 82.1487 81.5605 82.2644 81.7716 82.4432C81.9826 82.622 82.1389 82.8568 82.2224 83.1205C82.2852 83.3215 82.2884 83.4565 82.3009 83.4565C82.306 83.4253 82.306 83.3935 82.3009 83.3623C82.2952 83.2762 82.2805 83.191 82.257 83.108C82.1788 82.8324 82.0217 82.5857 81.8049 82.3985C81.5842 82.2197 81.3154 82.1104 81.0326 82.0845C80.947 82.0752 80.8607 82.0752 80.7751 82.0845L80.6841 82.0876Z" fill="#353535"/>
<path d="M81.2273 80.1616C81.1871 80.4793 81.1651 80.799 81.1613 81.1192C81.1409 81.438 81.1409 81.7579 81.1613 82.0767C81.2016 81.759 81.2247 81.4394 81.2304 81.1192C81.2489 80.8002 81.2479 80.4804 81.2273 80.1616Z" fill="#353535"/>
<path d="M82.9097 83.0436C83.1313 83.1005 83.359 83.13 83.5878 83.1315C83.8165 83.1485 84.0464 83.1369 84.2722 83.097C84.2722 83.0781 83.9583 83.097 83.5909 83.075C83.2236 83.053 82.9128 83.0279 82.9097 83.0436Z" fill="#353535"/>
<path d="M81.9966 83.0171C81.9966 83.0171 82.0186 83.0831 82.0468 83.1521C82.0751 83.2212 82.0939 83.2871 82.1096 83.284C82.1253 83.2809 82.1347 83.2118 82.1096 83.1302C82.0845 83.0485 82.006 83.0046 81.9966 83.0171Z" fill="#353535"/>
<path d="M81.6636 82.5777C81.6636 82.5777 81.6824 82.6374 81.7295 82.6876C81.7766 82.7378 81.8237 82.7724 81.8331 82.7598C81.8425 82.7473 81.8174 82.7002 81.7703 82.6499C81.7232 82.5997 81.6761 82.5683 81.6636 82.5777Z" fill="#353535"/>
<path d="M81.1769 82.3675C81.1769 82.3675 81.2428 82.3863 81.3087 82.4114C81.3746 82.4365 81.4249 82.4742 81.4374 82.4648C81.45 82.4554 81.4123 82.3894 81.3307 82.3581C81.2491 82.3267 81.1737 82.3549 81.1769 82.3675Z" fill="#353535"/>
<path d="M80.8286 82.2654C80.8286 82.2654 80.8506 82.3031 80.8883 82.3188C80.9259 82.3345 80.9605 82.3376 80.9668 82.3188C80.973 82.3 80.9479 82.2811 80.9102 82.2654C80.8726 82.2497 80.8349 82.2497 80.8286 82.2654Z" fill="#353535"/>
<path opacity="0.3" d="M80.6998 81.9647L85.3558 82.0212L85.3652 81.4624L80.6685 81.6665L80.6998 81.9647Z" fill="#353535"/>
<path d="M61.8467 73.1887L88.2187 57.7014C88.7896 57.3663 89.425 57.1561 90.0831 57.0847C90.7412 57.0133 91.4069 57.0822 92.0364 57.287C92.8694 57.5443 93.6291 57.9967 94.2521 58.6067C94.8751 59.2166 95.3436 59.9664 95.6186 60.7939C96.0014 61.9746 96.0146 63.2441 95.6562 64.4326L91.1761 81.7502L83.1829 81.9323L87.5782 67.3084L74.499 76.2183C73.4977 76.942 72.3519 77.4408 71.14 77.6807C69.9282 77.9206 68.6787 77.8958 67.4773 77.6081C66.2759 77.3204 65.1508 76.7766 64.1789 76.0138C63.2071 75.2511 62.4116 74.2874 61.8467 73.1887Z" fill="#353535"/>
<path d="M57.5518 72.9887L83.9081 57.514C84.4789 57.1787 85.1145 56.9686 85.7727 56.8977C86.4309 56.8268 87.0966 56.8967 87.7257 57.1027C88.5587 57.3593 89.3184 57.811 89.9414 58.4205C90.5645 59.0299 91.033 59.7794 91.3079 60.6064C91.6908 61.7872 91.7039 63.0567 91.3456 64.2452L86.8278 81.7041L78.8754 81.748L83.2708 67.121L70.2072 76.0309C69.2053 76.7547 68.0588 77.2532 66.8462 77.4925C65.6337 77.7317 64.3837 77.706 63.182 77.4171C61.9803 77.1281 60.8553 76.5828 59.884 75.8185C58.9128 75.0541 58.1182 74.0888 57.5549 72.9887H57.5518Z" fill="#717171"/>
<path d="M71.19 57.2296C71.19 57.2296 71.8618 64.4097 71.19 65.0973L69.6045 65.9135L66.0537 63.5087L71.19 57.2296Z" fill="#F66262"/>
<path opacity="0.4" d="M71.19 57.2296C71.19 57.2296 71.8618 64.4097 71.19 65.0973L69.6045 65.9135L66.0537 63.5087L71.19 57.2296Z" fill="#353535"/>
<path d="M59.4858 48.1123C60.4905 47.9616 51.838 47.0982 51.546 54.3254C51.254 61.5526 57.5519 73.1908 57.5519 73.1908L69.6045 65.9071C69.6045 65.9071 66.713 63.8758 66.2421 62.5164C65.8057 61.2041 66.6188 48.9128 59.4858 48.1123Z" fill="#F66262"/>
<path d="M53.8663 49.5355C53.499 49.6266 50.7268 52.1162 50.7048 57.0861C50.6765 61.0356 50.9811 69.8043 53.6779 71.1072C54.8992 71.6974 56.3748 71.4902 57.9854 70.4479C62.522 67.5156 70.939 58.2634 70.939 58.2634L67.3411 54.4332C67.3411 54.4332 58.001 63.9334 57.6086 63.5849C57.009 63.0606 57.1 58.1253 56.5914 53.6389C56.2209 50.4523 56.1487 48.9673 53.8663 49.5355Z" fill="#F66262"/>
<path d="M67.2091 62.2001C67.2091 62.2001 67.2091 62.2252 67.1651 62.266L67.0238 62.4418C66.8983 62.5988 66.7099 62.8249 66.4587 63.1106C65.9596 63.6851 65.2218 64.5014 64.2611 65.4621C63.1356 66.5876 61.9424 67.6434 60.6883 68.6236C59.9462 69.2032 59.1716 69.7399 58.3682 70.231C57.5119 70.7823 56.5758 71.1985 55.5928 71.4648C55.335 71.5266 55.0696 71.5509 54.8048 71.537C54.6702 71.5316 54.5371 71.5073 54.4092 71.4648C54.2856 71.4218 54.1658 71.3682 54.0513 71.3047C53.6042 71.0619 53.212 70.7295 52.8991 70.3283C52.3293 69.5666 51.9144 68.7005 51.6778 67.779C51.4545 66.955 51.2929 66.1155 51.1944 65.2674C51.0876 64.4763 50.9997 63.7385 50.9306 63.0697C50.7894 61.7166 50.7297 60.6178 50.7109 59.858C50.7109 59.4781 50.7109 59.183 50.7109 58.9852C50.7109 58.8942 50.7109 58.8188 50.7109 58.756C50.702 58.7537 50.6943 58.7483 50.6891 58.7407C50.684 58.7331 50.6818 58.7239 50.6829 58.7148C50.6841 58.7057 50.6885 58.6974 50.6954 58.6913C50.7023 58.6852 50.7111 58.6819 50.7203 58.6819C50.7295 58.6819 50.7383 58.6852 50.7452 58.6913C50.7521 58.6974 50.7565 58.7057 50.7577 58.7148C50.7588 58.7239 50.7566 58.7331 50.7515 58.7407C50.7463 58.7483 50.7386 58.7537 50.7297 58.756V58.9852C50.7297 59.1956 50.7517 59.4875 50.7705 59.858C50.8082 60.6146 50.8835 61.7103 51.0374 63.0572C51.1159 63.729 51.2101 64.4668 51.3231 65.2549C51.4269 66.0945 51.5917 66.9256 51.816 67.7414C52.0508 68.642 52.4581 69.4886 53.0153 70.2341C53.6055 70.9625 54.5317 71.6344 55.552 71.311C56.5171 71.0477 57.4369 70.6402 58.2803 70.1023C59.0788 69.6156 59.8493 69.0842 60.5878 68.5105C61.843 67.5347 63.0401 66.4864 64.1732 65.371C65.1433 64.4292 65.8936 63.6223 66.4054 63.0603L66.9925 62.4136L67.1463 62.2472L67.2091 62.2001Z" fill="#353535"/>
<path d="M67.3409 54.4317C67.2896 54.5029 67.2329 54.5701 67.1713 54.6326C67.0552 54.7614 66.8888 54.9466 66.6627 55.1915C66.2138 55.6718 65.5513 56.3562 64.7131 57.1913C63.8748 58.0265 62.8608 59.0123 61.7148 60.0954L59.9033 61.7908C59.2597 62.3716 58.6161 62.9806 57.8878 63.5677L57.7685 63.665V63.5049C57.7465 63.1564 57.7245 62.786 57.7025 62.4092C57.5926 60.447 57.4828 58.5759 57.3886 56.8743C57.3321 56.0234 57.3227 55.2134 57.2379 54.4662C57.1751 53.7716 56.9902 53.0935 56.6916 52.4632C56.4446 51.9454 56.0696 51.4992 55.6022 51.1666C55.2436 50.9241 54.8304 50.7741 54.3997 50.7302C54.1268 50.7007 53.8507 50.7242 53.5866 50.7993C53.4045 50.8495 53.3166 50.8966 53.3135 50.8872C53.3953 50.8352 53.4841 50.795 53.5772 50.7679C53.8429 50.6792 54.1235 50.644 54.4029 50.6643C54.8507 50.6988 55.2826 50.8456 55.6587 51.0912C56.147 51.4249 56.5407 51.8791 56.8015 52.4098C57.1144 53.0501 57.31 53.7413 57.3792 54.4505C57.4702 55.2072 57.4859 56.0203 57.5456 56.868C57.6492 58.5696 57.759 60.4376 57.8595 62.403C57.8815 62.7766 57.9035 63.1502 57.9254 63.4987L57.7967 63.4359C58.5 62.8676 59.1593 62.2491 59.7997 61.6746L61.6175 59.9887C62.7697 58.9118 63.7901 57.9354 64.6377 57.1129C65.4854 56.2903 66.1604 55.6153 66.6219 55.1475L67.1525 54.6107C67.2095 54.5452 67.2725 54.4852 67.3409 54.4317Z" fill="#353535"/>
<path d="M69.5512 59.757C69.3406 59.6045 69.1479 59.4286 68.9767 59.2327C68.6376 58.8937 68.1793 58.4196 67.6769 57.889C67.1746 57.3584 66.7351 56.8687 66.4211 56.5108C66.2387 56.3299 66.0737 56.1323 65.9282 55.9205C66.138 56.0741 66.3306 56.2499 66.5028 56.4448C66.8387 56.7808 67.3002 57.258 67.7994 57.7886C68.2986 58.3191 68.7412 58.8058 69.0552 59.1668C69.2404 59.346 69.4066 59.5438 69.5512 59.757Z" fill="#353535"/>
<path d="M56.9834 65.734C57.0197 65.3224 57.1258 64.92 57.2974 64.5441C57.415 64.1499 57.6021 63.7799 57.8499 63.4515C57.7507 63.8464 57.6173 64.232 57.4512 64.6037C57.3301 64.994 57.1736 65.3723 56.9834 65.734Z" fill="#353535"/>
<path d="M56.1768 65.0989C56.7023 64.4721 57.3107 63.9197 57.9851 63.4569C57.7407 63.7845 57.4559 64.0798 57.1375 64.336C56.8523 64.6316 56.5293 64.8881 56.1768 65.0989Z" fill="#353535"/>
<path d="M67.1465 55.5369C67.1622 55.5557 67.0931 55.6248 67.1088 55.7473C67.1115 55.7784 67.1221 55.8083 67.1397 55.8342C67.1573 55.86 67.1813 55.8809 67.2093 55.8948C67.241 55.9139 67.2774 55.924 67.3144 55.924C67.3515 55.924 67.3879 55.9139 67.4196 55.8948C67.4468 55.8698 67.4669 55.838 67.478 55.8028C67.489 55.7675 67.4905 55.7299 67.4824 55.6939C67.4755 55.663 67.4605 55.6346 67.439 55.6114C67.4175 55.5883 67.3902 55.5712 67.36 55.562C67.2469 55.5181 67.1622 55.562 67.1496 55.5463C67.1371 55.5306 67.2061 55.4239 67.3882 55.449C67.442 55.4588 67.4924 55.4825 67.5342 55.5177C67.5761 55.553 67.608 55.5985 67.6268 55.6499C67.6486 55.7157 67.65 55.7865 67.631 55.8532C67.6119 55.9198 67.5733 55.9792 67.5201 56.0235C67.4648 56.0648 67.3983 56.0883 67.3294 56.0911C67.2605 56.0939 67.1924 56.0758 67.1339 56.0392C67.088 56.0091 67.0507 55.9674 67.026 55.9184C67.0012 55.8694 66.9897 55.8147 66.9926 55.7598C67.0146 55.562 67.1402 55.5181 67.1465 55.5369Z" fill="#353535"/>
<g opacity="0.4">
<path d="M56.8709 71.1864C58.9932 70.7371 60.9703 69.7666 62.6239 68.3624C64.2775 66.9582 65.5556 65.1644 66.3428 63.1429C63.4827 66.1349 60.5441 69.1865 56.8521 71.0577" fill="#353535"/>
</g>
<g opacity="0.4">
<path d="M57.2691 53.7631C57.7777 55.8958 58.2874 58.0265 58.7981 60.1551C58.9878 60.7638 59.053 61.4045 58.9896 62.0389C58.953 62.3552 58.8243 62.6539 58.6194 62.8978C58.4146 63.1417 58.1427 63.3201 57.8374 63.4108L57.2095 53.8259" fill="#353535"/>
</g>
<path d="M53.37 42.3398C52.9512 42.1194 52.4815 42.014 52.0088 42.0342C51.536 42.0544 51.077 42.1994 50.6785 42.4547C50.2801 42.7099 49.9563 43.0661 49.7403 43.4871C49.5243 43.9081 49.4237 44.3789 49.4487 44.8514C49.4864 45.5578 49.794 46.3081 49.4801 46.9455C49.0751 47.768 47.7722 48.0569 47.7376 48.9736C47.7157 49.6015 48.3436 50.0787 48.3875 50.6972C48.4252 51.2215 48.0453 51.6673 47.8036 52.132C47.5045 52.7756 47.4324 53.5015 47.5988 54.1914C47.7653 54.8813 48.1606 55.4944 48.7203 55.9308C49.3018 56.3395 49.9953 56.5588 50.7061 56.5588C51.4168 56.5588 52.1103 56.3395 52.6918 55.9308C53.2604 55.4998 53.698 54.9193 53.9558 54.254C54.2136 53.5888 54.2814 52.8649 54.1517 52.1634C54.0073 51.3848 53.6305 50.6281 53.7341 49.8433C53.8401 49.4419 53.9187 49.0339 53.9696 48.622C53.9696 47.4164 52.4783 46.6974 52.2554 45.5107C52.2233 45.2636 52.2468 45.0124 52.3242 44.7755C52.4015 44.5386 52.5308 44.322 52.7027 44.1415C52.8745 43.9609 53.0844 43.821 53.3172 43.732C53.55 43.643 53.7997 43.6071 54.0481 43.627" fill="#353535"/>
<path d="M61.0118 48.6119C61.0495 47.67 61.0997 46.8381 61.0997 46.8381C61.0997 46.8381 63.1812 46.5743 63.2722 44.4489C63.3633 42.3234 63.1498 37.432 63.1498 37.432L59.3353 35.5923L55.6997 38.9704L55.841 48.6684C55.8863 49.3444 56.1946 49.9758 56.6999 50.4271C57.2053 50.8784 57.8673 51.1138 58.5441 51.0827C59.1895 51.0528 59.8004 50.7828 60.2569 50.3257C60.7135 49.8686 60.9827 49.2573 61.0118 48.6119Z" fill="#B79999"/>
<path d="M59.649 40.867C59.649 40.9196 59.6334 40.9711 59.6042 41.0149C59.575 41.0587 59.5335 41.0929 59.4849 41.1132C59.4364 41.1335 59.3829 41.1389 59.3312 41.1289C59.2795 41.1189 59.2319 41.0937 59.1945 41.0567C59.1571 41.0197 59.1314 40.9725 59.1208 40.9209C59.1101 40.8694 59.1149 40.8158 59.1347 40.767C59.1544 40.7182 59.1881 40.6763 59.2316 40.6466C59.275 40.6169 59.3263 40.6007 59.379 40.6001C59.45 40.6001 59.5182 40.6281 59.5688 40.6781C59.6193 40.728 59.6481 40.7959 59.649 40.867Z" fill="#353535"/>
<path d="M59.8879 40.7584C59.8565 40.7961 59.6556 40.6297 59.373 40.6171C59.0905 40.6046 58.8738 40.7521 58.8456 40.7113C58.8173 40.6705 58.8644 40.6297 58.9555 40.5638C59.0786 40.4757 59.2282 40.4325 59.3793 40.4413C59.5305 40.4468 59.6754 40.5033 59.7906 40.6014C59.8753 40.6768 59.9067 40.7427 59.8879 40.7584Z" fill="#353535"/>
<path d="M60.9612 43.2119C61.1118 43.1657 61.2683 43.1413 61.4258 43.1397C61.498 43.1397 61.5671 43.1209 61.5796 43.0706C61.5881 42.9895 61.5729 42.9077 61.5357 42.8352L61.3285 42.2324C61.1349 41.7219 60.9817 41.197 60.8701 40.6626C61.0987 41.1586 61.2907 41.6707 61.4447 42.1947L61.6424 42.8006C61.6877 42.8988 61.6988 43.0094 61.6738 43.1146C61.665 43.1415 61.6494 43.1658 61.6285 43.185C61.6076 43.2043 61.5821 43.2178 61.5545 43.2245C61.5136 43.2353 61.4713 43.2406 61.429 43.2402C61.2725 43.2502 61.1153 43.2408 60.9612 43.2119Z" fill="#353535"/>
<path d="M61.0993 46.8341C60.1119 46.8084 59.1536 46.494 58.3428 45.9299C58.3428 45.9299 58.9927 47.4809 61.0647 47.3553L61.0993 46.8341Z" fill="#B79999"/>
<path d="M52.9588 41.0077C52.9588 42.8475 52.425 45.2617 55.7843 45.9336L56.0983 41.5383C56.0983 41.5383 59.0965 40.6718 59.489 36.9546L59.5078 36.9734C59.7182 37.4537 60.0886 38.4866 59.8626 39.328L62.9016 40.0784L63.2533 40.3923C63.5501 39.6229 63.6128 38.7829 63.4335 37.9779C63.2542 37.173 62.8408 36.439 62.2455 35.8683C60.1577 33.7146 58.3744 35.2749 57.2536 35.1399C56.5724 35.0583 54.4909 34.9986 53.3386 38.4144C53.146 38.9974 53.032 39.6034 52.9996 40.2165L52.9588 41.0077Z" fill="#353535"/>
<path d="M56.1045 41.5489C55.7183 41.1251 55.1155 41.4892 54.8895 41.7341C54.7105 41.9288 54.5996 42.1763 54.5734 42.4394C54.5472 42.7025 54.6071 42.967 54.744 43.1932C54.881 43.4194 55.0877 43.595 55.333 43.6936C55.5783 43.7923 55.849 43.8087 56.1045 43.7403" fill="#B79999"/>
<path d="M55.7184 43.1003C55.7184 43.1223 55.6242 43.1443 55.4704 43.1003C55.3668 43.0762 55.2708 43.0269 55.1909 42.9568C55.1109 42.8867 55.0495 42.798 55.012 42.6985C54.9697 42.5807 54.9753 42.4511 55.0277 42.3374C55.0681 42.2493 55.1336 42.175 55.2161 42.1239C55.3542 42.036 55.4578 42.0486 55.4609 42.0674C55.4641 42.0863 55.3825 42.1239 55.2883 42.215C55.2279 42.2667 55.1841 42.3351 55.1623 42.4116C55.1405 42.4881 55.1418 42.5693 55.1658 42.6451C55.1974 42.7228 55.2442 42.7934 55.3035 42.8527C55.3629 42.912 55.4335 42.9589 55.5112 42.9904C55.6336 43.047 55.7215 43.0783 55.7184 43.1003Z" fill="#B79999"/>
<path d="M55.4421 43.5239C55.3839 43.5352 55.3319 43.5678 55.2964 43.6154C55.261 43.6629 55.2444 43.722 55.2501 43.781C55.2558 43.8401 55.2833 43.8949 55.3272 43.9348C55.3711 43.9747 55.4283 43.9968 55.4876 43.9968C55.547 43.9968 55.6041 43.9747 55.6481 43.9348C55.692 43.8949 55.7194 43.8401 55.7251 43.781C55.7308 43.722 55.7143 43.6629 55.6788 43.6154C55.6433 43.5678 55.5914 43.5352 55.5332 43.5239" fill="#F66262"/>
<path d="M53.2254 44.0493C53.0454 43.7657 52.9376 43.4423 52.9114 43.1074C52.8398 42.7791 52.8516 42.438 52.946 42.1154C53.013 42.4351 53.056 42.7593 53.0747 43.0855C53.1514 43.402 53.2018 43.7244 53.2254 44.0493Z" fill="#F66262"/>
<path d="M67.7681 54.9694L73.4475 48.1095L73.9278 48.5679L68.3144 55.4811L67.7681 54.9694Z" fill="#353535"/>
<path d="M68.2233 54.62C68.2233 54.62 69.115 52.0801 69.3159 51.5401C69.5168 51.0001 69.859 50.0551 69.9972 50.0331C70.1353 50.0111 70.6251 50.0771 70.0254 51.6908C69.4258 53.3045 70.8229 52.2904 70.8229 52.2904L72.0567 50.8776C72.0567 50.8776 73.2937 54.1742 72.6846 55.1757C72.0505 56.1399 71.3541 57.0617 70.6 57.9353L67.8843 55.025L68.2233 54.62Z" fill="#B79999"/>
<path d="M60.5626 43.4688C60.4761 43.4757 60.3928 43.5043 60.3203 43.5521C60.2479 43.5998 60.1887 43.6651 60.1482 43.7419C60.1106 43.8198 60.0937 43.9061 60.0992 43.9925C60.1047 44.0788 60.1324 44.1623 60.1796 44.2348C60.2278 44.3069 60.294 44.3652 60.3716 44.4037C60.4493 44.4423 60.5357 44.4598 60.6223 44.4546C60.7251 44.4503 60.8225 44.4078 60.8954 44.3353C60.9487 44.2668 60.9849 44.1868 61.0013 44.1017C61.0177 44.0166 61.0137 43.9288 60.9896 43.8455C60.9738 43.7415 60.928 43.6444 60.8578 43.5661C60.8224 43.5285 60.7765 43.5024 60.7261 43.4912C60.6758 43.48 60.6232 43.4842 60.5752 43.5033" fill="#B79999"/>
<path d="M61.0995 44.0303C61.0995 44.0743 60.7855 44.1371 60.4339 43.955C60.0823 43.7729 59.9441 43.4715 59.985 43.4527C60.0258 43.4338 60.2016 43.6567 60.5093 43.8106C60.8169 43.9644 61.0995 43.9927 61.0995 44.0303Z" fill="#353535"/>
<path d="M62.6694 40.8515C62.6706 40.8868 62.6648 40.922 62.6524 40.9551C62.6399 40.9882 62.621 41.0184 62.5968 41.0441C62.5726 41.0698 62.5435 41.0905 62.5112 41.1048C62.4789 41.1192 62.4441 41.127 62.4088 41.1278C62.3377 41.1278 62.2695 41.0998 62.219 41.0498C62.1684 40.9999 62.1396 40.932 62.1388 40.8609C62.1347 40.8237 62.1386 40.786 62.15 40.7503C62.1615 40.7146 62.1804 40.6818 62.2054 40.6539C62.2304 40.626 62.2611 40.6036 62.2953 40.5884C62.3295 40.5731 62.3666 40.5652 62.4041 40.5652C62.4415 40.5652 62.4786 40.5731 62.5128 40.5884C62.5471 40.6036 62.5777 40.626 62.6027 40.6539C62.6277 40.6818 62.6466 40.7146 62.6581 40.7503C62.6696 40.786 62.6734 40.8237 62.6694 40.8609V40.8515Z" fill="#353535"/>
<path d="M62.9269 40.7283C62.8923 40.7659 62.6945 40.5995 62.4089 40.587C62.1232 40.5744 61.9128 40.722 61.8814 40.6812C61.85 40.6404 61.9003 40.5995 61.9944 40.5336C62.1166 40.446 62.265 40.4028 62.4151 40.4112C62.5663 40.4167 62.7113 40.4731 62.8264 40.5713C62.9143 40.6466 62.9426 40.7126 62.9269 40.7283Z" fill="#353535"/>
<path d="M59.6774 39.8302C59.6774 39.8773 59.4074 39.8616 59.0997 39.9213C58.792 39.9809 58.5534 40.0908 58.5283 40.0531C58.5032 40.0155 58.723 39.8271 59.0683 39.7612C59.4137 39.6952 59.6868 39.7894 59.6774 39.8302Z" fill="#353535"/>
<path d="M76.3543 77.4041C74.8347 76.5082 73.0558 76.155 71.3092 76.4026C69.5626 76.6501 67.9519 77.4837 66.7411 78.7667C66.3067 78.0763 65.7263 77.4896 65.0406 77.0478C64.3549 76.6061 63.5807 76.32 62.7725 76.2099C61.9643 76.0997 61.1418 76.1681 60.3629 76.4103C59.584 76.6524 58.8677 77.0624 58.2644 77.6113C57.9504 75.2944 56.8547 73.0182 54.9679 71.6462C53.081 70.2743 50.3748 69.9383 48.3749 71.147L45.5493 78.2424L55.668 82.3457L69.0612 83.3253L76.3543 77.4041Z" fill="#EDEDED"/>
<path d="M48.3625 71.1354C48.3405 71.104 48.6262 70.8215 49.2824 70.5546C50.2353 70.1818 51.2712 70.0733 52.2806 70.2407C52.9897 70.3456 53.6775 70.5629 54.3182 70.8843C55.0608 71.2654 55.7303 71.7744 56.2961 72.3881C57.5876 73.8361 58.4078 75.6429 58.6476 77.5683L57.9789 77.3266C58.8095 76.5704 59.8349 76.0615 60.9394 75.8573C62.1583 75.6271 63.4188 75.7921 64.5373 76.3282C65.5718 76.8227 66.4432 77.6026 67.049 78.5761L66.4556 78.5165C67.4871 77.4536 68.7901 76.6935 70.223 76.3188C71.3366 76.0319 72.5 75.9954 73.6294 76.212C74.355 76.3476 75.0544 76.5977 75.7015 76.953C76.1473 77.201 76.3545 77.3862 76.3294 77.4176C76.3043 77.449 76.0594 77.3454 75.5947 77.1727C74.9358 76.9237 74.2498 76.753 73.5509 76.6641C72.4891 76.5339 71.4119 76.6237 70.3863 76.9279C69.0881 77.32 67.9163 78.0478 66.9893 79.0376L66.6754 79.3892L66.4085 78.978C65.8618 78.141 65.0904 77.4751 64.1826 77.0566C63.2149 76.6016 62.1281 76.4643 61.0776 76.6641C60.1233 76.8414 59.2354 77.2756 58.5094 77.9199L57.9381 78.4348L57.8407 77.6751C57.6339 75.9014 56.91 74.2276 55.7592 72.8622C55.264 72.2898 54.6734 71.8076 54.0136 71.4368C53.4394 71.1189 52.8201 70.8903 52.177 70.7587C51.2425 70.5581 50.2734 70.585 49.3515 70.8372C48.7267 71.0067 48.3939 71.1888 48.3625 71.1354Z" fill="#F66262"/>
<path d="M44.6178 29.8875C44.8205 30.0028 44.9902 30.1681 45.1107 30.3678C45.4804 30.899 45.6474 31.545 45.5817 32.1887C45.527 32.6645 45.3741 33.1237 45.1325 33.5371C44.8909 33.9506 44.5659 34.3093 44.1783 34.5905C43.7194 34.9342 43.1779 35.1508 42.6085 35.2184C41.9933 35.2828 41.3729 35.1602 40.8284 34.8667C40.2808 34.5805 39.8305 34.1379 39.5349 33.5952C39.2682 33.0866 39.1497 32.5134 39.1927 31.9407C39.2256 31.4275 39.3794 30.9294 39.6417 30.4871C39.8674 30.1031 40.1685 29.7688 40.527 29.5044C41.0375 29.1236 41.6356 28.8774 42.2663 28.7886C42.4931 28.742 42.7271 28.742 42.9539 28.7886C42.9539 28.8169 42.7121 28.8231 42.2914 28.9173C41.6996 29.0513 41.1458 29.3175 40.6714 29.6959C40.3465 29.9537 40.0764 30.274 39.8771 30.6378C39.6467 31.0476 39.5155 31.5056 39.4941 31.9752C39.4614 32.4896 39.5699 33.0031 39.8081 33.4602C40.0806 33.9416 40.4854 34.3346 40.9745 34.5928C41.4636 34.851 42.0166 34.9635 42.5677 34.917C43.0814 34.8561 43.571 34.6648 43.9899 34.3613C44.3522 34.1057 44.6588 33.7791 44.8909 33.4012C45.123 33.0234 45.2757 32.6023 45.3399 32.1636C45.4191 31.5653 45.2964 30.9577 44.9914 30.4369C44.7842 30.0695 44.5958 29.9094 44.6178 29.8875Z" fill="#F66262"/>
<path d="M41.6633 27.8445C41.7229 27.7346 42.3351 28.1427 43.0195 28.7204L43.164 28.8397L43.0195 28.9653L42.9348 29.0406C42.219 29.6685 41.5911 30.1112 41.5314 30.0453C41.4718 29.9793 42.0055 29.4174 42.7213 28.7895L42.8061 28.7172V28.9621C42.3814 28.6371 41.9977 28.2618 41.6633 27.8445Z" fill="#F66262"/>
<path d="M50.7868 39.0485C50.7868 39.0485 50.6989 39.0328 50.5106 38.9889L49.6597 38.7911C48.9125 38.6184 47.776 38.3641 46.3695 38.0156H46.4417C45.2987 38.7512 43.9737 39.1544 42.6147 39.1804C41.8097 39.187 41.0084 39.0716 40.238 38.8382C39.396 38.5738 38.6088 38.1589 37.9148 37.6138C37.141 37.0138 36.4932 36.2671 36.0084 35.4165C35.5235 34.5658 35.2112 33.6279 35.0892 32.6564C34.9611 31.6021 35.0552 30.5327 35.3655 29.5169C35.6971 28.4666 36.2555 27.502 37.0012 26.6913C38.0125 25.5851 39.3348 24.8105 40.7944 24.4693C42.2539 24.1281 43.7825 24.2362 45.1795 24.7795C46.5765 25.3228 47.7765 26.2759 48.622 27.5136C49.4676 28.7512 49.919 30.2157 49.9172 31.7146C49.9206 33.0695 49.5478 34.3987 48.8403 35.5542V35.4632C49.4839 36.6248 49.9706 37.5415 50.2939 38.1506C50.454 38.4457 50.5765 38.6749 50.6613 38.835C50.7039 38.9083 50.7427 38.9837 50.7774 39.0611C50.7774 39.0611 50.7178 38.97 50.6236 38.8099C50.5294 38.6498 50.385 38.4143 50.206 38.1161C49.845 37.5102 49.3238 36.6531 48.6865 35.5511L48.6614 35.5071L48.6865 35.4632C49.3122 34.406 49.6564 33.2062 49.6863 31.9781C49.7163 30.75 49.4309 29.5348 48.8575 28.4484C48.2841 27.3621 47.4417 26.4408 46.4109 25.7726C45.3801 25.1045 44.1952 24.7117 42.9694 24.6318C41.9039 24.5607 40.8361 24.73 39.8448 25.1272C38.8536 25.5245 37.9644 26.1395 37.2429 26.9268C36.576 27.6522 36.0661 28.5075 35.7452 29.4392C35.4244 30.3709 35.2996 31.3588 35.3786 32.3411C35.4576 33.3233 35.7387 34.2785 36.2043 35.147C36.6699 36.0154 37.31 36.7783 38.0843 37.3877C38.7489 37.9161 39.5028 38.3212 40.3102 38.5839C41.0525 38.8142 41.8249 38.9327 42.6021 38.9355C43.9214 38.9243 45.2124 38.5519 46.335 37.8586L46.3695 37.8367H46.4072C47.7635 38.1946 48.8372 38.5022 49.5938 38.7126L50.4635 38.9543C50.6707 39.0108 50.7806 39.0422 50.7868 39.0485Z" fill="#353535"/>
<path d="M36.3258 104.664C36.1643 104.641 36.0054 104.602 35.8518 104.548C35.6948 104.501 35.5033 104.45 35.2804 104.378L34.5143 104.108C32.8965 103.502 31.3362 102.751 29.8521 101.866C28.9103 101.311 27.9056 100.655 26.8633 99.9042C25.821 99.1539 24.7441 98.2905 23.6673 97.3235C22.5401 96.3135 21.465 95.2467 20.4461 94.1275C19.3594 92.9206 18.3376 91.6567 17.3851 90.3412C16.4409 89.0173 15.569 87.6433 14.773 86.2253C14.0417 84.9005 13.3804 83.5381 12.7919 82.1439C11.129 78.1835 10.1196 73.9795 9.80311 69.6957C9.77799 69.0898 9.75916 68.6189 9.7466 68.2892C9.73421 68.1262 9.73421 67.9625 9.7466 67.7994C9.78442 67.9591 9.8065 68.1221 9.81253 68.2861C9.83765 68.6157 9.87846 69.0835 9.92869 69.6832C10.1065 71.3923 10.379 73.0903 10.745 74.7692C11.2916 77.2562 12.0705 79.6864 13.0714 82.0278C13.6676 83.4048 14.334 84.7502 15.0681 86.0589C16.6497 88.8753 18.5386 91.5077 20.7004 93.9077C21.749 95.0694 22.8227 96.1274 23.8839 97.0944C24.945 98.0613 26.0188 98.909 27.0391 99.6782C28.0595 100.447 29.0578 101.097 29.9871 101.659C31.4503 102.557 32.9843 103.334 34.574 103.982L35.3275 104.281L35.8863 104.479C36.0376 104.528 36.1846 104.59 36.3258 104.664Z" fill="#353535"/>
<path d="M33.6133 105.382C33.6133 105.294 34.9978 104.999 36.7528 104.723L36.6523 104.987L36.5958 104.918C35.4499 103.505 34.574 102.312 34.6462 102.255C34.7184 102.199 35.7011 103.298 36.8439 104.714L36.8972 104.779L37.0793 105.002L36.7968 105.043C35.048 105.319 33.6258 105.467 33.6133 105.382Z" fill="#353535"/>
<path d="M109.499 50.4072C109.499 50.4072 109.524 50.4512 109.555 50.5422C109.587 50.6333 109.628 50.7746 109.684 50.9472C109.741 51.1199 109.806 51.3491 109.879 51.6128C109.951 51.8765 110.02 52.1873 110.102 52.5327C110.535 54.4943 110.793 56.4905 110.874 58.4978C110.934 59.7724 110.927 61.1695 110.874 62.6671C110.821 64.1646 110.648 65.7595 110.39 67.4266C110.133 69.0937 109.785 70.8267 109.323 72.6037C108.834 74.4329 108.251 76.2353 107.574 78.0037C106.884 79.7669 106.1 81.4919 105.226 83.1713C104.783 83.975 104.363 84.7725 103.895 85.5228C103.427 86.2732 102.969 87.0015 102.504 87.7048C100.834 90.186 98.9263 92.4992 96.8088 94.6118C95.3824 96.0295 93.8672 97.355 92.2722 98.5801L90.9411 99.522L90.5894 99.7637C90.5078 99.8171 90.467 99.8422 90.4639 99.8359C90.4945 99.7976 90.5305 99.7638 90.5706 99.7355L90.9003 99.4686L92.1937 98.4671C93.7518 97.2076 95.2381 95.8617 96.6456 94.4359C98.7258 92.3126 100.604 90.0003 102.256 87.529C102.714 86.8257 103.198 86.1131 103.628 85.3502C104.058 84.5872 104.504 83.8118 104.94 83.0143C105.803 81.3508 106.576 79.6426 107.257 77.8969C107.929 76.1402 108.51 74.3505 109 72.5346C109.464 70.7702 109.81 69.0466 110.08 67.3921C110.35 65.7375 110.491 64.1521 110.591 62.6639C110.692 61.1758 110.689 59.7881 110.642 58.5198C110.584 56.5167 110.362 54.5217 109.979 52.5547C109.907 52.2062 109.841 51.8985 109.785 51.6316C109.728 51.3648 109.665 51.145 109.621 50.9598C109.577 50.7745 109.546 50.6458 109.524 50.5454C109.51 50.5004 109.502 50.4541 109.499 50.4072Z" fill="#353535"/>
<path d="M111.925 52.6034C111.86 52.663 110.692 51.4763 109.298 49.9348L109.574 49.8751L109.543 49.9693C108.896 51.9911 108.287 53.608 108.211 53.5797C108.136 53.5515 108.582 51.8938 109.232 49.872L109.263 49.7746L109.351 49.5046L109.539 49.715C110.93 51.2596 111.991 52.5437 111.925 52.6034Z" fill="#353535"/>
<path d="M87.2461 17.4113C87.1896 17.3831 87.1359 17.3495 87.086 17.3108L86.6496 16.9906L85.9369 16.4569C85.6543 16.2465 85.309 16.0425 84.9228 15.7882C82.7424 14.4129 80.4283 13.2621 78.0159 12.3535C76.4901 11.7759 74.7916 11.2013 72.9393 10.6896C72.0131 10.4384 71.0555 10.1873 70.0509 9.97063C69.5517 9.85761 69.0431 9.75086 68.5282 9.65668C68.2708 9.60645 68.0102 9.55935 67.7496 9.51854L66.949 9.41807C62.31 8.74576 57.5983 8.74576 52.9593 9.41807C48.3116 10.0827 43.7729 11.3622 39.4625 13.2232C35.9422 14.7415 32.6038 16.6508 29.5102 18.9151L28.5683 19.6341C28.2544 19.8664 27.9404 20.0862 27.6736 20.3342L26.1038 21.6842L25.7396 21.9982L25.41 22.3121L24.7821 22.918L23.6927 23.9823L22.283 25.5521L21.9094 25.9571C21.8689 26.0045 21.8236 26.0476 21.7744 26.0858C21.8053 26.0317 21.8422 25.9811 21.8843 25.9351L22.2328 25.5113L23.5985 23.9007L24.6722 22.8144L25.3001 22.1865L25.6141 21.8726L25.9751 21.5586L27.5449 20.1835C27.818 19.9292 28.1257 19.7063 28.4333 19.4708C28.741 19.2354 29.0613 18.9905 29.3752 18.7393C32.4633 16.4416 35.8046 14.5054 39.3338 12.9689C43.6572 11.0819 48.2148 9.78516 52.884 9.11354C57.5526 8.4296 62.2961 8.4296 66.9647 9.11354L67.7685 9.21714C68.0322 9.2611 68.2959 9.30819 68.5565 9.36156C69.0745 9.46203 69.5862 9.57191 70.0854 9.67552C71.0901 9.90156 72.0539 10.1559 72.9832 10.4164C74.8418 10.9407 76.5434 11.531 78.0724 12.1243C80.4953 13.0544 82.811 14.2428 84.9793 15.6689C85.3561 15.9326 85.7046 16.1461 85.9808 16.3659L86.6778 16.9247L87.1017 17.2732C87.1543 17.3143 87.2026 17.3606 87.2461 17.4113Z" fill="#353535"/>
<path d="M21.8747 22.8157C21.9626 22.8157 21.8151 24.4891 21.5388 26.5486L21.3159 26.3759L21.4069 26.3383C23.3691 25.5251 24.9891 24.9349 25.0237 25.0165C25.0582 25.0981 23.4947 25.8265 21.5325 26.6397L21.4415 26.6773L21.1777 26.7872L21.2154 26.5047C21.4948 24.4451 21.7868 22.8063 21.8747 22.8157Z" fill="#353535"/>
</svg>
